<svg id="visual" viewBox="0 0 960 540" width="960" height="540" xmlns="http://www.w3.org/2000/svg" xmlns:xlink="http://www.w3.org/1999/xlink" version="1.1"><rect x="0" y="0" width="960" height="540" fill="#E65C8B"></rect><defs><linearGradient id="grad1_0" x1="43.8%" y1="0%" x2="100%" y2="100%"><stop offset="14.444444444444446%" stop-color="#e65c8b" stop-opacity="1"></stop><stop offset="85.55555555555554%" stop-color="#e65c8b" stop-opacity="1"></stop></linearGradient></defs><defs><linearGradient id="grad2_0" x1="0%" y1="0%" x2="56.3%" y2="100%"><stop offset="14.444444444444446%" stop-color="#e65c8b" stop-opacity="1"></stop><stop offset="85.55555555555554%" stop-color="#e65c8b" stop-opacity="1"></stop></linearGradient></defs><g transform="translate(960, 0)"><path d="M0 405C-42.9 365.9 -85.9 326.7 -124.8 301.2C-163.6 275.6 -198.5 263.6 -244 244C-289.4 224.3 -345.6 196.9 -374.2 155C-402.8 113 -403.9 56.5 -405 0L0 0Z" fill="#F16293"></path></g><g transform="translate(0, 540)"><path d="M0 -405C36.3 -360.8 72.5 -316.6 125.9 -304C179.3 -291.3 249.7 -310.3 286.4 -286.4C323 -262.5 325.9 -195.7 340 -140.8C354.1 -86 379.6 -43 405 0L0 0Z" fill="#F16293"></path></g></svg>